<svg xmlns="http://www.w3.org/2000/svg" width="156.311" height="156.31" viewBox="0 0 156.311 156.31">
  <g id="Grupo_17" data-name="Grupo 17" transform="translate(-919.689 -651)">
    <circle id="Elipse_7" data-name="Elipse 7" cx="78.155" cy="78.155" r="78.155" transform="translate(919.69 651)" fill="#fff"/>
    <g id="Grupo_16" data-name="Grupo 16" transform="translate(1272.526 333.977)">
      <path id="Trazado_74" data-name="Trazado 74" d="M-231.016,505.808c-2.852-1.978-5.545-3.845-11.056-3.866h-.1c-5.447,0-8.142,1.837-10.994,3.781a19.543,19.543,0,0,1-8.9,3.89,51.7,51.7,0,0,0,6.392,2.193c.5-.32.987-.65,1.464-.975,2.96-2.017,6.022-4.1,12.042-4.1h.1c6.089.023,9.149,2.146,12.108,4.2.44.306.894.616,1.351.918a51.575,51.575,0,0,0,6.246-2.112A19.671,19.671,0,0,1-231.016,505.808Z" transform="translate(-32.616 -66.443)" fill="none"/>
      <path id="Trazado_75" data-name="Trazado 75" d="M-279.02,489.033c-6.089-.024-9.149-2.146-12.108-4.2-2.493-1.729-4.868-3.37-9.106-3.771a52.347,52.347,0,0,0,3.878,5.527,22.361,22.361,0,0,1,6.289,3.362c2.851,1.977,5.544,3.845,11.054,3.866,5.493.019,8.221-1.825,11.09-3.78,2.961-2.018,6.022-4.1,12.042-4.1h.1c6.089.024,9.149,2.146,12.108,4.2,2.852,1.977,5.545,3.845,11.056,3.867,5.495.015,8.222-1.825,11.091-3.78a23.017,23.017,0,0,1,5.976-3.205,52.4,52.4,0,0,0,3.99-5.584c-4.106.4-6.454,2-8.919,3.681-2.961,2.018-6.022,4.1-12.042,4.1h-.1c-6.089-.024-9.149-2.146-12.108-4.2-2.852-1.977-5.545-3.845-11.056-3.866h-.1c-5.448,0-8.142,1.837-10.994,3.781C-269.853,486.958-272.92,489.043-279.02,489.033Z" transform="translate(-18.901 -58.941)" fill="none"/>
      <path id="Trazado_76" data-name="Trazado 76" d="M-237.11,512.314h-.1c-5.447,0-8.142,1.836-10.994,3.78l-.057.039a52.01,52.01,0,0,0,11.152,1.207,52.006,52.006,0,0,0,11.022-1.179C-228.924,514.191-231.618,512.335-237.11,512.314Z" transform="translate(-37.577 -70.171)" fill="none"/>
      <path id="Trazado_77" data-name="Trazado 77" d="M-293.55,507.733l-.776-.679-3.388,3.868.776.68a2.75,2.75,0,0,0,1.933.8,2.5,2.5,0,0,0,1.781-.962,2.5,2.5,0,0,0,.718-1.892A2.751,2.751,0,0,0-293.55,507.733Z" transform="translate(-19.806 -68.28)" fill="none"/>
      <path id="Trazado_78" data-name="Trazado 78" d="M-310.687,494.219l2.127-2.772-3.38.9Z" transform="translate(-14.694 -62.673)" fill="none"/>
      <path id="Trazado_79" data-name="Trazado 79" d="M-294.3,439.037c2.851,1.978,5.544,3.845,11.054,3.867,5.493.014,8.221-1.825,11.09-3.781.864-.589,1.74-1.183,2.693-1.73a72.2,72.2,0,0,1-4.23-20.176,25.73,25.73,0,0,1-12.24-22.015,25.948,25.948,0,0,1,25.919-25.919A25.948,25.948,0,0,1-234.091,395.2a25.73,25.73,0,0,1-12.24,22.015,72.157,72.157,0,0,1-4.255,20.245c.951.556,1.824,1.158,2.687,1.756,2.852,1.978,5.545,3.846,11.056,3.867,5.495.01,8.221-1.825,11.09-3.781,2.8-1.908,5.7-3.875,11.109-4.08a51.678,51.678,0,0,0,6.626-25.373,52.051,52.051,0,0,0-51.992-51.992A52.051,52.051,0,0,0-312,409.852a51.671,51.671,0,0,0,6.423,25.01C-300.038,435.066-297.116,437.081-294.3,439.037Z" transform="translate(-14.672 -14.673)" fill="none"/>
      <path id="Trazado_80" data-name="Trazado 80" d="M-216.642,495.531c-2.961,2.017-6.023,4.1-12.043,4.1h-.1c-6.089-.024-9.149-2.146-12.108-4.2-2.852-1.978-5.545-3.846-11.056-3.867h-.1c-5.447,0-8.142,1.836-10.994,3.781-2.961,2.018-6.022,4.1-12.042,4.1h-.1c-6.088-.024-9.148-2.146-12.108-4.2-.753-.523-1.491-1.031-2.267-1.5a52.282,52.282,0,0,0,14.05,10.479c.11,0,.219.005.332.006,5.493.022,8.221-1.825,11.09-3.781,2.961-2.018,6.022-4.1,12.042-4.1h.1c6.089.024,9.149,2.146,12.108,4.2,2.852,1.978,5.545,3.845,11.056,3.867l.019,0a52.273,52.273,0,0,0,13.754-9.977C-215.557,494.794-216.1,495.158-216.642,495.531Z" transform="translate(-22.736 -62.717)" fill="none"/>
      <path id="Trazado_81" data-name="Trazado 81" d="M-220.285,402.653a24.086,24.086,0,0,0-24.058-24.059A24.086,24.086,0,0,0-268.4,402.653a23.867,23.867,0,0,0,10.279,19.724c-.011-.458-.019-.914-.019-1.36,0-14.686,6.2-34.17,13.435-35.973a.953.953,0,0,1,.225-.028h.277a.949.949,0,0,1,.224.028c7.236,1.8,13.435,21.287,13.435,35.973,0,.446-.008.9-.019,1.36A23.865,23.865,0,0,0-220.285,402.653Z" transform="translate(-30.338 -22.123)" fill="none"/>
      <path id="Trazado_82" data-name="Trazado 82" d="M-172.685,360.239a.863.863,0,0,0,.57-.408.875.875,0,0,0,.17-.677,1.016,1.016,0,0,0-.473-.615l-.866-.6-1.006,1.462.866.6A1.058,1.058,0,0,0-172.685,360.239Z" transform="translate(-64.154 -14.703)" fill="none"/>
      <path id="Trazado_83" data-name="Trazado 83" d="M-273.641,319.926a76.38,76.38,0,0,0-76.293,76.3,76.378,76.378,0,0,0,76.293,76.293,76.378,76.378,0,0,0,76.3-76.293A76.38,76.38,0,0,0-273.641,319.926Zm0,147.513a71.294,71.294,0,0,1-71.215-71.215A71.3,71.3,0,0,1-273.641,325a71.3,71.3,0,0,1,71.22,71.22A71.3,71.3,0,0,1-273.641,467.439Z" transform="translate(-1.043 -1.043)" fill="none"/>
      <path id="Trazado_84" data-name="Trazado 84" d="M-269.75,330.755a69.435,69.435,0,0,0-69.355,69.36A69.435,69.435,0,0,0-269.75,469.47a69.436,69.436,0,0,0,69.36-69.355A69.437,69.437,0,0,0-269.75,330.755Zm36.66,15.28,2.386,1.641a3.165,3.165,0,0,1,.995,1.037,2.043,2.043,0,0,1,.265,1.14,2.3,2.3,0,0,1-.414,1.106,2.04,2.04,0,0,1-1.083.828,2.147,2.147,0,0,1-1.423-.089l-.191,3.218-1.543-1.065.25-3.041-.32-.218-1.5,2.181-1.395-.963Zm-12.922-6.376,4.045,1.632-.507,1.251-2.474-1-.548,1.362,2.2.889-.483,1.185-2.195-.888-.586,1.442,2.474,1-.507,1.26-4.046-1.636Zm-17.786-4,2.05.293,1.181,5.068,2.53-4.534,2.041.3-.995,6.887-1.679-.242.623-4.306-2.116,4.092-1.451-.209-.879-4.534-.623,4.316-1.679-.242Zm-16.28.6,2.474,4.58,1.242-5.041,2.051-.251.851,6.905-1.684.21-.53-4.32-.962,4.506-1.456.181-2.041-4.143.534,4.329-1.683.209-.855-6.91Zm-15.987,4.432,1.488,3.761a1.607,1.607,0,0,0,.679.874,1.129,1.129,0,0,0,.981,0,1.124,1.124,0,0,0,.707-.674,1.593,1.593,0,0,0-.1-1.1l-1.488-3.761,1.577-.623,1.488,3.762a3.38,3.38,0,0,1,.255,1.7,2.473,2.473,0,0,1-.609,1.335,3.317,3.317,0,0,1-1.279.879,3.179,3.179,0,0,1-1.507.233,2.419,2.419,0,0,1-1.316-.577,3.5,3.5,0,0,1-.958-1.423l-1.488-3.762Zm-13.675,7.8a3.29,3.29,0,0,1,.921-.93,2.9,2.9,0,0,1,1.846-.6,2.141,2.141,0,0,1,1.507.814l-1.507,1.046a.982.982,0,0,0-.52-.312.765.765,0,0,0-.572.144.712.712,0,0,0-.3.4.578.578,0,0,0,.111.488.606.606,0,0,0,.377.256,1.2,1.2,0,0,0,.5,0c.177-.033.427-.093.744-.177a8.3,8.3,0,0,1,1.163-.256,2.14,2.14,0,0,1,.971.116,1.914,1.914,0,0,1,.889.739,1.981,1.981,0,0,1,.349,1,2.033,2.033,0,0,1-.265,1.083,2.89,2.89,0,0,1-.939.986,3.136,3.136,0,0,1-1.925.632,2.081,2.081,0,0,1-1.6-.846l1.488-1.028a.94.94,0,0,0,.586.353.878.878,0,0,0,.637-.163.734.734,0,0,0,.325-.442.641.641,0,0,0-.116-.5.612.612,0,0,0-.4-.27,1.413,1.413,0,0,0-.521.005c-.186.037-.432.1-.744.181a8.913,8.913,0,0,1-1.144.255,2.028,2.028,0,0,1-.958-.111,1.823,1.823,0,0,1-.87-.73,1.841,1.841,0,0,1-.354-1.069A2.033,2.033,0,0,1-309.74,348.494Zm39.99-2.231A53.911,53.911,0,0,1-215.9,400.115a53.531,53.531,0,0,1-7.026,26.574,1.066,1.066,0,0,1-.177.311,53.989,53.989,0,0,1-4.989,7.2.97.97,0,0,1-.265.316,53.963,53.963,0,0,1-27.789,17.7.577.577,0,0,1-.125.033,53.672,53.672,0,0,1-13.48,1.711,53.792,53.792,0,0,1-13.6-1.744.865.865,0,0,1-.213-.056,53.448,53.448,0,0,1-10.263-3.9.861.861,0,0,1-.32-.158,54.215,54.215,0,0,1-17.34-14.01.908.908,0,0,1-.26-.33,53.737,53.737,0,0,1-4.85-7.133.882.882,0,0,1-.181-.321,53.5,53.5,0,0,1-6.822-26.2A53.914,53.914,0,0,1-269.75,346.263Zm-56.707,33.214a60.565,60.565,0,0,0-3.594,20.637.932.932,0,0,1-.93.929.929.929,0,0,1-.929-.929,62.408,62.408,0,0,1,3.706-21.27.929.929,0,0,1,1.19-.558A.926.926,0,0,1-326.457,379.477Zm5.18,61.692-1.288-1.925,1.055-1.377-1.879-2.8-1.674.446-1.274-1.9,9.258-2.232,1.4,2.083Zm15.954,6.236a4.7,4.7,0,0,1-1.116,2.134,4.776,4.776,0,0,1-1.976,1.4,3.983,3.983,0,0,1-2.275.13,5.205,5.205,0,0,1-2.26-1.219l-2.558-2.241,5.929-6.766,2.557,2.237a5.311,5.311,0,0,1,1.516,2.074A3.909,3.909,0,0,1-305.323,447.405Zm8.2,12.857-2.525-1.241,1.167-9.453,2.092,1.028-1.009,7.05,4.962-5.106,2.087,1.028Zm17.963-1.944-3.348-.725-.4,1.842,2.976.642-.349,1.6-2.971-.642-.424,1.953,3.344.726-.368,1.7-5.473-1.186,1.9-8.793,5.473,1.185Zm13.146,7.873-3.8-5.418.163,5.524-2.177.06-.26-8.993,2.176-.065,3.8,5.468-.163-5.571,2.177-.065.26,9Zm15.145-2.693-2.106.6-1.99-6.99-2.325.661-.474-1.665,6.78-1.93.474,1.665-2.348.67Zm14.955-7.091a4.2,4.2,0,0,1-1.465,1.349,3.985,3.985,0,0,1-1.869.577,3.027,3.027,0,0,1-1.781-.488,4.5,4.5,0,0,1-1.479-1.627l-2.59-4.5,1.874-1.079,2.59,4.5a2.059,2.059,0,0,0,1.028.981,1.444,1.444,0,0,0,1.242-.172,1.455,1.455,0,0,0,.776-.99,2.072,2.072,0,0,0-.33-1.381l-2.59-4.5,1.888-1.083,2.585,4.5a4.307,4.307,0,0,1,.642,2.107A3.228,3.228,0,0,1-235.916,456.407ZM-223.529,447l-3.762-1.083-.358.344,2.367,2.441-1.562,1.516-6.269-6.458,2.669-2.59a4,4,0,0,1,1.553-.99,2.559,2.559,0,0,1,1.5-.046,2.9,2.9,0,0,1,1.288.8,2.607,2.607,0,0,1,.772,1.572,2.763,2.763,0,0,1-.474,1.772l4,1.051Zm7.133-8.487-7.575-4.854,3.017-4.716,1.46.935-1.846,2.883,1.586,1.014,1.642-2.562,1.381.888-1.641,2.563,1.683,1.074,1.846-2.883,1.47.944Zm8.273-37.47a.932.932,0,0,1-.93-.929,60.565,60.565,0,0,0-3.594-20.637.926.926,0,0,1,.558-1.19.929.929,0,0,1,1.19.558,62.411,62.411,0,0,1,3.706,21.27A.93.93,0,0,1-208.123,401.044Z" transform="translate(-4.934 -4.934)" fill="none"/>
      <path id="Trazado_85" data-name="Trazado 85" d="M-167.376,504.667a1.31,1.31,0,0,0-.893.441l-.968.94,1.586,1.635.968-.939a1.356,1.356,0,0,0,.486-.871,1.1,1.1,0,0,0-.37-.82A1.125,1.125,0,0,0-167.376,504.667Z" transform="translate(-65.97 -67.423)" fill="none"/>
      <path id="Trazado_87" data-name="Trazado 87" d="M-247.074,465.5a72.236,72.236,0,0,1-1.627-8.723Z" transform="translate(-37.417 -50.217)" fill="#b33030"/>
      <path id="Trazado_88" data-name="Trazado 88" d="M-213.913,456.773a73.348,73.348,0,0,1-1.627,8.732Z" transform="translate(-49.332 -50.214)" fill="#b33030"/>
      <path id="Trazado_91" data-name="Trazado 91" d="M-292.549,360.458a1.988,1.988,0,0,0,.957.11,8.6,8.6,0,0,0,1.144-.254q.465-.129.742-.182a1.358,1.358,0,0,1,.521,0,.612.612,0,0,1,.4.268.624.624,0,0,1,.116.5.723.723,0,0,1-.322.44.87.87,0,0,1-.64.165.952.952,0,0,1-.588-.353l-1.484,1.026a2.08,2.08,0,0,0,1.6.848,3.143,3.143,0,0,0,1.925-.632,2.94,2.94,0,0,0,.939-.987,2,2,0,0,0,.262-1.086,1.932,1.932,0,0,0-.349-1,1.854,1.854,0,0,0-.885-.738,2.106,2.106,0,0,0-.973-.117,7.982,7.982,0,0,0-1.162.255q-.479.127-.744.178a1.248,1.248,0,0,1-.5,0,.589.589,0,0,1-.374-.254.583.583,0,0,1-.114-.488.709.709,0,0,1,.3-.4.744.744,0,0,1,.568-.146.94.94,0,0,1,.521.309l1.509-1.043a2.12,2.12,0,0,0-1.509-.814,2.884,2.884,0,0,0-1.845.6,3.222,3.222,0,0,0-.918.93,2.016,2.016,0,0,0-.324,1.074,1.84,1.84,0,0,0,.354,1.069A1.83,1.83,0,0,0-292.549,360.458Z" transform="translate(-21.222 -14.022)" fill="#b32e94"/>
      <path id="Trazado_92" data-name="Trazado 92" d="M-271.927,351.218a2.392,2.392,0,0,0,1.316.577,3.155,3.155,0,0,0,1.507-.234,3.264,3.264,0,0,0,1.28-.874,2.512,2.512,0,0,0,.606-1.338,3.326,3.326,0,0,0-.255-1.7l-1.488-3.761-1.577.623,1.488,3.762a1.592,1.592,0,0,1,.1,1.1,1.124,1.124,0,0,1-.709.675,1.125,1.125,0,0,1-.978-.007,1.593,1.593,0,0,1-.681-.872l-1.488-3.761-1.567.62,1.488,3.761A3.509,3.509,0,0,0-271.927,351.218Z" transform="translate(-28.193 -9.654)" fill="#b32e94"/>
      <path id="Trazado_93" data-name="Trazado 93" d="M-247.651,345.9l-.536-4.33,2.041,4.143,1.456-.18.961-4.5.534,4.32,1.683-.208-.855-6.908-2.047.253-1.245,5.04-2.475-4.579-2.057.254.855,6.908Z" transform="translate(-36.883 -7.623)" fill="#b32e94"/>
      <path id="Trazado_94" data-name="Trazado 94" d="M-220.814,341.214l.878,4.535,1.452.21,2.114-4.093-.622,4.308,1.678.242.995-6.889-2.041-.295-2.528,4.534-1.182-5.069-2.051-.3-.995,6.889,1.678.242Z" transform="translate(-46.611 -7.682)" fill="#b32e94"/>
      <path id="Trazado_95" data-name="Trazado 95" d="M-193.351,351.526l-2.472-1,.584-1.443,2.2.889.48-1.186-2.2-.889.55-1.36,2.473,1,.506-1.25-4.044-1.636-2.629,6.5,4.044,1.636Z" transform="translate(-55.669 -9.927)" fill="#b32e94"/>
      <path id="Trazado_96" data-name="Trazado 96" d="M-176.941,359.162l.318.22-.251,3.041,1.543,1.062.191-3.215a2.155,2.155,0,0,0,1.424.09,2.033,2.033,0,0,0,1.083-.831,2.254,2.254,0,0,0,.413-1.106,1.981,1.981,0,0,0-.264-1.138,3.12,3.12,0,0,0-1-1.035l-2.385-1.642-3.974,5.774,1.4.961Zm1.664-2.417.865.6a1.017,1.017,0,0,1,.474.615.875.875,0,0,1-.17.677.862.862,0,0,1-.57.408,1.058,1.058,0,0,1-.739-.238l-.866-.6Z" transform="translate(-62.16 -13.504)" fill="#b32e94"/>
      <path id="Trazado_97" data-name="Trazado 97" d="M-319.178,490.039l1.274,1.9,1.676-.448,1.877,2.8-1.052,1.379,1.289,1.925,5.59-7.71-1.395-2.084Zm5.891,2.872-1.254-1.872,3.38-.9Z" transform="translate(-12.094 -61.365)" fill="#b32e94"/>
      <path id="Trazado_98" data-name="Trazado 98" d="M-293.787,504.813l-2.557-2.239-5.928,6.77,2.556,2.239a5.193,5.193,0,0,0,2.259,1.217,3.975,3.975,0,0,0,2.278-.128,4.775,4.775,0,0,0,1.973-1.394,4.735,4.735,0,0,0,1.117-2.135,3.911,3.911,0,0,0-.181-2.257A5.285,5.285,0,0,0-293.787,504.813Zm-1.075,5.014a2.5,2.5,0,0,1-1.781.962,2.75,2.75,0,0,1-1.933-.8l-.776-.68,3.388-3.868.776.679a2.753,2.753,0,0,1,1.044,1.811A2.5,2.5,0,0,1-294.862,509.827Z" transform="translate(-18.168 -66.671)" fill="#b32e94"/>
      <path id="Trazado_99" data-name="Trazado 99" d="M-275.275,524.277l1.01-7.049-2.09-1.027-1.171,9.451,2.525,1.241,6.779-6.694-2.091-1.028Z" transform="translate(-27.06 -71.567)" fill="#b32e94"/>
      <path id="Trazado_100" data-name="Trazado 100" d="M-256.49,534.163l5.473,1.185.369-1.7-3.346-.724.423-1.954,2.973.644.347-1.6-2.973-.643.4-1.842,3.346.725.366-1.692-5.474-1.185Z" transform="translate(-34.618 -74.861)" fill="#b32e94"/>
      <path id="Trazado_101" data-name="Trazado 101" d="M-228.692,528.073l.161,5.573-3.8-5.467-2.176.063.26,9,2.176-.063-.16-5.521,3.8,5.417,2.175-.063-.26-9Z" transform="translate(-42.518 -75.81)" fill="#b32e94"/>
      <path id="Trazado_102" data-name="Trazado 102" d="M-205.37,523.392l-6.782,1.931.474,1.665,2.326-.662,1.99,6.99,2.105-.6-1.99-6.99,2.35-.669Z" transform="translate(-50.55 -74.151)" fill="#b32e94"/>
      <path id="Trazado_103" data-name="Trazado 103" d="M-185.9,513.737l-1.887,1.085,2.59,4.5a2.045,2.045,0,0,1,.331,1.381,1.442,1.442,0,0,1-.775.988,1.441,1.441,0,0,1-1.244.173,2.044,2.044,0,0,1-1.026-.981l-2.59-4.5-1.875,1.079,2.589,4.5a4.508,4.508,0,0,0,1.481,1.63,3.066,3.066,0,0,0,1.779.489,4.068,4.068,0,0,0,1.871-.577,4.2,4.2,0,0,0,1.463-1.349,3.227,3.227,0,0,0,.521-1.812,4.278,4.278,0,0,0-.639-2.107Z" transform="translate(-57.654 -70.682)" fill="#b32e94"/>
      <path id="Trazado_104" data-name="Trazado 104" d="M-165.885,503.794a2.612,2.612,0,0,0-.773-1.573,2.9,2.9,0,0,0-1.288-.8,2.552,2.552,0,0,0-1.5.045,4.006,4.006,0,0,0-1.554.994l-2.667,2.588,6.266,6.459,1.562-1.516-2.366-2.439.356-.345,3.764,1.083,1.727-1.675-4-1.05A2.767,2.767,0,0,0-165.885,503.794Zm-2.39,1.751-.968.939-1.586-1.635.968-.94a1.308,1.308,0,0,1,.893-.441,1.125,1.125,0,0,1,.809.386,1.1,1.1,0,0,1,.37.82A1.357,1.357,0,0,1-168.274,505.545Z" transform="translate(-64.378 -66.224)" fill="#b32e94"/>
      <path id="Trazado_105" data-name="Trazado 105" d="M-152.119,490.808l-1.683-1.078,1.641-2.562-1.383-.885-1.64,2.562-1.586-1.016,1.846-2.883-1.458-.933-3.02,4.716,7.578,4.852,3.02-4.716-1.468-.94Z" transform="translate(-69.503 -60.001)" fill="#b32e94"/>
      <g id="Grupo_12" data-name="Grupo 12" transform="translate(-352.837 317.023)">
        <path id="Trazado_86" data-name="Trazado 86" d="M-274.684,317.023a78.245,78.245,0,0,0-78.153,78.157,78.244,78.244,0,0,0,78.153,78.153,78.245,78.245,0,0,0,78.158-78.153A78.246,78.246,0,0,0-274.684,317.023Zm0,154.45a76.378,76.378,0,0,1-76.293-76.293,76.38,76.38,0,0,1,76.293-76.3,76.38,76.38,0,0,1,76.3,76.3A76.379,76.379,0,0,1-274.684,471.473Z" transform="translate(352.837 -317.023)" fill="#b32e94"/>
        <path id="Trazado_89" data-name="Trazado 89" d="M-261.056,354.96a53.915,53.915,0,0,0-53.853,53.852,53.5,53.5,0,0,0,6.822,26.2.879.879,0,0,0,.181.321,53.718,53.718,0,0,0,4.85,7.133.909.909,0,0,0,.26.33,54.215,54.215,0,0,0,17.34,14.01.86.86,0,0,0,.32.158,53.492,53.492,0,0,0,10.263,3.9.865.865,0,0,0,.213.056,53.8,53.8,0,0,0,13.6,1.744,53.684,53.684,0,0,0,13.48-1.711.6.6,0,0,0,.125-.033,53.965,53.965,0,0,0,27.789-17.7.975.975,0,0,0,.265-.317,53.956,53.956,0,0,0,4.989-7.2,1.062,1.062,0,0,0,.177-.311,53.531,53.531,0,0,0,7.026-26.574A53.912,53.912,0,0,0-261.056,354.96Zm0,105.844a52.185,52.185,0,0,1-11.151-1.209.4.4,0,0,1,.056-.037c2.856-1.944,5.548-3.781,11-3.781h.093c5.5.019,8.189,1.874,11.03,3.845A51.871,51.871,0,0,1-261.056,460.8Zm13.461-1.771c-.456-.3-.912-.615-1.349-.921-2.962-2.05-6.022-4.171-12.108-4.194h-.1c-6.022,0-9.081,2.083-12.044,4.1-.474.325-.967.656-1.46.972a50.573,50.573,0,0,1-6.393-2.19,19.5,19.5,0,0,0,8.9-3.892c2.856-1.944,5.548-3.781,11-3.781h.093c5.511.024,8.207,1.893,11.058,3.869a19.691,19.691,0,0,0,8.659,3.925A52.547,52.547,0,0,1-247.594,459.032Zm9.723-3.7h-.018c-5.51-.024-8.2-1.888-11.053-3.869-2.962-2.051-6.022-4.171-12.108-4.2h-.1c-6.022,0-9.081,2.088-12.044,4.106-2.869,1.953-5.594,3.8-11.091,3.78-.111,0-.218,0-.33,0a52.305,52.305,0,0,1-14.052-10.481c.777.47,1.516.981,2.269,1.5,2.958,2.051,6.022,4.176,12.108,4.2h.1c6.017,0,9.081-2.088,12.038-4.106,2.856-1.943,5.548-3.78,11-3.78h.093c5.511.023,8.207,1.892,11.058,3.868,2.958,2.051,6.017,4.176,12.109,4.2h.1c6.022,0,9.081-2.088,12.043-4.105.545-.373,1.084-.735,1.633-1.084A52.216,52.216,0,0,1-237.871,455.335Zm17.052-13.629a23.013,23.013,0,0,0-5.98,3.2c-2.869,1.953-5.594,3.795-11.09,3.781s-8.2-1.893-11.053-3.868c-2.962-2.051-6.022-4.176-12.108-4.2h-.1c-6.022,0-9.081,2.087-12.044,4.105-2.869,1.954-5.594,3.8-11.091,3.781s-8.2-1.893-11.053-3.869a22.291,22.291,0,0,0-6.286-3.362,51.958,51.958,0,0,1-3.878-5.524c4.236.4,6.612,2.041,9.1,3.771,2.958,2.051,6.022,4.175,12.108,4.2,6.1.009,9.165-2.074,12.141-4.106,2.856-1.944,5.548-3.781,11-3.781h.093c5.511.024,8.207,1.888,11.058,3.869,2.958,2.051,6.017,4.171,12.109,4.2h.1c6.022,0,9.081-2.088,12.043-4.106,2.465-1.678,4.813-3.274,8.919-3.678A53.109,53.109,0,0,1-220.819,441.706Zm-54.014-27.821a23.868,23.868,0,0,1-10.277-19.726A24.085,24.085,0,0,1-261.056,370.1,24.087,24.087,0,0,1-237,394.159a23.87,23.87,0,0,1-10.277,19.726c.009-.46.019-.916.019-1.358,0-14.69-6.2-34.173-13.434-35.973a.958.958,0,0,0-.228-.028h-.274a.935.935,0,0,0-.228.028c-7.235,1.8-13.433,21.283-13.433,35.973C-274.852,412.974-274.843,413.429-274.833,413.885Zm25.719-1.358c0,.972-.028,1.981-.084,3-.079,1.534-.223,3.1-.418,4.664a73.343,73.343,0,0,1-1.627,8.733,64.423,64.423,0,0,1-2.046,6.631A17.768,17.768,0,0,0-260.126,434V378.786C-254.69,381.888-249.114,398.544-249.114,412.527Zm-12.872-33.741V434a17.663,17.663,0,0,0-6.85,1.5,63.019,63.019,0,0,1-2.027-6.58,72.227,72.227,0,0,1-1.627-8.723c-.191-1.553-.335-3.093-.419-4.608-.056-1.042-.083-2.069-.083-3.059C-272.992,398.544-267.417,381.888-261.986,378.786Zm46.3,55.4c-5.408.2-8.3,2.172-11.109,4.083-2.869,1.953-5.594,3.79-11.09,3.781s-8.2-1.892-11.053-3.869c-.865-.6-1.734-1.2-2.688-1.758a72.013,72.013,0,0,0,4.255-20.241,25.725,25.725,0,0,0,12.239-22.018,25.949,25.949,0,0,0-25.919-25.919,25.948,25.948,0,0,0-25.915,25.919,25.726,25.726,0,0,0,12.239,22.018,72.263,72.263,0,0,0,4.227,20.177c-.953.544-1.828,1.139-2.693,1.73-2.869,1.953-5.594,3.794-11.091,3.78s-8.2-1.892-11.053-3.869c-2.818-1.957-5.742-3.971-11.28-4.175a51.666,51.666,0,0,1-6.426-25.008,52.049,52.049,0,0,1,51.992-51.992,52.047,52.047,0,0,1,51.992,51.992A51.653,51.653,0,0,1-215.69,434.182Z" transform="translate(339.209 -330.654)" fill="#b32e94"/>
        <path id="Trazado_90" data-name="Trazado 90" d="M-270.793,327.851a71.3,71.3,0,0,0-71.215,71.22,71.294,71.294,0,0,0,71.215,71.215,71.3,71.3,0,0,0,71.219-71.215A71.3,71.3,0,0,0-270.793,327.851Zm0,140.575a69.435,69.435,0,0,1-69.355-69.355,69.435,69.435,0,0,1,69.355-69.36,69.437,69.437,0,0,1,69.36,69.36A69.436,69.436,0,0,1-270.793,468.426Z" transform="translate(348.946 -320.914)" fill="#b32e94"/>
        <path id="Trazado_106" data-name="Trazado 106" d="M-140.012,405.471a.93.93,0,0,0-1.19-.558.93.93,0,0,0-.559,1.19,60.517,60.517,0,0,1,3.6,20.635.93.93,0,0,0,.93.93.93.93,0,0,0,.93-.93A62.373,62.373,0,0,0-140.012,405.471Z" transform="translate(277.015 -348.583)" fill="#b32e94"/>
        <path id="Trazado_107" data-name="Trazado 107" d="M-322.981,404.913a.929.929,0,0,0-1.19.558,62.374,62.374,0,0,0-3.708,21.268.93.93,0,0,0,.93.929.93.93,0,0,0,.93-.929,60.52,60.52,0,0,1,3.6-20.635A.929.929,0,0,0-322.981,404.913Z" transform="translate(343.87 -348.583)" fill="#b32e94"/>
      </g>
    </g>
  </g>
</svg>
