<svg xmlns="http://www.w3.org/2000/svg" width="243.973" height="243.972" viewBox="0 0 243.973 243.972">
  <g id="Grupo_11" data-name="Grupo 11" transform="translate(352.837 -317.023)">
    <path id="Trazado_74" data-name="Trazado 74" d="M-213.6,507.977c-4.451-3.087-8.655-6-17.256-6.035h-.149c-8.5,0-12.708,2.867-17.16,5.9-3.74,2.549-7.585,5.166-13.9,6.072a80.665,80.665,0,0,0,9.977,3.422c.774-.5,1.541-1.014,2.284-1.521,4.621-3.148,9.4-6.4,18.795-6.4h.16c9.5.037,14.28,3.349,18.9,6.552.687.477,1.4.962,2.109,1.433a80.536,80.536,0,0,0,9.749-3.3C-206.194,513.1-209.953,510.508-213.6,507.977Z" fill="none"/>
    <path id="Trazado_75" data-name="Trazado 75" d="M-267.123,493.5c-9.5-.037-14.279-3.35-18.9-6.553-3.891-2.7-7.6-5.26-14.213-5.886a81.624,81.624,0,0,0,6.053,8.626,34.9,34.9,0,0,1,9.815,5.247c4.45,3.086,8.654,6,17.254,6.035,8.574.029,12.831-2.849,17.309-5.9,4.621-3.149,9.4-6.405,18.795-6.405h.16c9.5.037,14.28,3.349,18.9,6.553,4.451,3.086,8.655,6,17.256,6.035,8.576.023,12.832-2.849,17.31-5.9a35.919,35.919,0,0,1,9.328-5,81.725,81.725,0,0,0,6.228-8.716c-6.408.631-10.073,3.123-13.921,5.745-4.621,3.149-9.4,6.4-18.8,6.4h-.16c-9.5-.037-14.28-3.35-18.9-6.553-4.451-3.086-8.655-6-17.256-6.035h-.149c-8.5,0-12.708,2.867-17.16,5.9C-252.815,490.264-257.6,493.519-267.123,493.5Z" fill="none"/>
    <path id="Trazado_76" data-name="Trazado 76" d="M-230.859,512.314h-.149c-8.5,0-12.708,2.866-17.16,5.9l-.089.061a81.183,81.183,0,0,0,17.406,1.885,81.164,81.164,0,0,0,17.2-1.841C-218.082,515.244-222.286,512.347-230.859,512.314Z" fill="none"/>
    <path id="Trazado_77" data-name="Trazado 77" d="M-291.215,508.114l-1.211-1.06-5.288,6.037,1.211,1.061a4.293,4.293,0,0,0,3.017,1.243,3.9,3.9,0,0,0,2.78-1.5,3.9,3.9,0,0,0,1.121-2.953A4.3,4.3,0,0,0-291.215,508.114Z" fill="none"/>
    <path id="Trazado_78" data-name="Trazado 78" d="M-309.984,495.774l3.319-4.326-5.276,1.4Z" fill="none"/>
    <path id="Trazado_79" data-name="Trazado 79" d="M-284.366,484.563c4.45,3.087,8.653,6,17.254,6.036,8.574.021,12.831-2.849,17.309-5.9,1.349-.919,2.716-1.846,4.2-2.7a112.682,112.682,0,0,1-6.6-31.491,40.16,40.16,0,0,1-19.1-34.361,40.5,40.5,0,0,1,40.455-40.455A40.5,40.5,0,0,1-190.4,416.146a40.159,40.159,0,0,1-19.1,34.361,112.624,112.624,0,0,1-6.641,31.6c1.485.868,2.847,1.808,4.193,2.741,4.451,3.087,8.655,6,17.256,6.036,8.576.015,12.832-2.849,17.31-5.9,4.371-2.979,8.9-6.048,17.34-6.368a80.658,80.658,0,0,0,10.342-39.6,81.242,81.242,0,0,0-81.15-81.151A81.243,81.243,0,0,0-312,439.01a80.646,80.646,0,0,0,10.025,39.036C-293.328,478.366-288.768,481.51-284.366,484.563Z" fill="none"/>
    <path id="Trazado_80" data-name="Trazado 80" d="M-175.748,497.753c-4.621,3.149-9.4,6.4-18.8,6.4h-.16c-9.5-.037-14.28-3.349-18.9-6.552-4.451-3.087-8.655-6-17.256-6.036h-.149c-8.5,0-12.708,2.866-17.16,5.9-4.621,3.149-9.4,6.4-18.8,6.4h-.16c-9.5-.037-14.279-3.349-18.9-6.552-1.175-.816-2.327-1.609-3.539-2.343a81.6,81.6,0,0,0,21.93,16.356c.172,0,.342.008.518.009,8.574.035,12.831-2.849,17.309-5.9,4.621-3.149,9.4-6.4,18.795-6.4h.16c9.5.038,14.28,3.35,18.9,6.553,4.451,3.087,8.655,6,17.256,6.036.01,0,.019,0,.029,0A81.584,81.584,0,0,0-173.2,496.058C-174.054,496.6-174.9,497.171-175.748,497.753Z" fill="none"/>
    <path id="Trazado_81" data-name="Trazado 81" d="M-193.3,416.146a37.594,37.594,0,0,0-37.551-37.552A37.594,37.594,0,0,0-268.4,416.146a37.253,37.253,0,0,0,16.044,30.786c-.017-.715-.03-1.427-.03-2.123,0-22.922,9.676-53.333,20.97-56.147a1.48,1.48,0,0,1,.351-.043h.432a1.472,1.472,0,0,1,.35.043c11.294,2.814,20.97,33.225,20.97,56.147,0,.7-.012,1.407-.029,2.122A37.25,37.25,0,0,0-193.3,416.146Z" fill="none"/>
    <path id="Trazado_82" data-name="Trazado 82" d="M-171.785,361.526a1.345,1.345,0,0,0,.89-.637,1.365,1.365,0,0,0,.266-1.056,1.586,1.586,0,0,0-.739-.96l-1.351-.93-1.571,2.282,1.352.93A1.652,1.652,0,0,0-171.785,361.526Z" fill="none"/>
    <path id="Trazado_83" data-name="Trazado 83" d="M-230.854,319.926a119.215,119.215,0,0,0-119.08,119.087,119.213,119.213,0,0,0,119.08,119.079A119.213,119.213,0,0,0-111.768,439.013,119.216,119.216,0,0,0-230.854,319.926Zm0,230.241A111.277,111.277,0,0,1-342.008,439.013,111.284,111.284,0,0,1-230.854,327.851,111.286,111.286,0,0,1-119.693,439.013,111.279,111.279,0,0,1-230.854,550.167Z" fill="none"/>
    <path id="Trazado_84" data-name="Trazado 84" d="M-230.854,330.755A108.376,108.376,0,0,0-339.105,439.013,108.375,108.375,0,0,0-230.854,547.264,108.377,108.377,0,0,0-122.6,439.013,108.378,108.378,0,0,0-230.854,330.755Zm57.22,23.849,3.724,2.562a4.944,4.944,0,0,1,1.553,1.618,3.188,3.188,0,0,1,.414,1.779,3.594,3.594,0,0,1-.646,1.727,3.183,3.183,0,0,1-1.691,1.292,3.348,3.348,0,0,1-2.221-.138l-.3,5.022-2.409-1.662.391-4.746-.5-.341-2.345,3.4-2.177-1.5Zm-20.169-9.951,6.314,2.548-.791,1.952-3.861-1.56-.856,2.126,3.432,1.387-.754,1.85-3.426-1.386-.915,2.25,3.862,1.56-.791,1.967-6.315-2.554Zm-27.761-6.249,3.2.458,1.844,7.911,3.948-7.077,3.186.465-1.553,10.749-2.62-.378.973-6.721-3.3,6.387-2.264-.326-1.372-7.077-.972,6.736-2.621-.378Zm-25.41.944,3.861,7.149,1.938-7.868,3.2-.392,1.328,10.778-2.628.327-.827-6.743-1.5,7.033-2.272.283-3.186-6.466.834,6.757-2.627.326-1.335-10.785Zm-24.953,6.917,2.323,5.871a2.51,2.51,0,0,0,1.06,1.365,1.763,1.763,0,0,0,1.531.007,1.753,1.753,0,0,0,1.1-1.052,2.488,2.488,0,0,0-.152-1.721l-2.323-5.871,2.461-.973,2.322,5.872a5.279,5.279,0,0,1,.4,2.649,3.862,3.862,0,0,1-.95,2.083,5.176,5.176,0,0,1-2,1.372,4.963,4.963,0,0,1-2.352.363,3.778,3.778,0,0,1-2.054-.9,5.467,5.467,0,0,1-1.495-2.221l-2.323-5.872Zm-21.345,12.178a5.135,5.135,0,0,1,1.437-1.451,4.52,4.52,0,0,1,2.881-.937,3.34,3.34,0,0,1,2.352,1.271l-2.352,1.633a1.53,1.53,0,0,0-.812-.487,1.2,1.2,0,0,0-.893.225,1.113,1.113,0,0,0-.472.632.9.9,0,0,0,.174.762.947.947,0,0,0,.588.4,1.87,1.87,0,0,0,.777-.007c.276-.051.667-.145,1.161-.276a12.941,12.941,0,0,1,1.815-.4,3.341,3.341,0,0,1,1.516.181,2.986,2.986,0,0,1,1.387,1.154,3.092,3.092,0,0,1,.544,1.568,3.172,3.172,0,0,1-.414,1.691,4.506,4.506,0,0,1-1.466,1.539,4.9,4.9,0,0,1-3,.987,3.248,3.248,0,0,1-2.5-1.321l2.322-1.6a1.467,1.467,0,0,0,.915.551,1.367,1.367,0,0,0,.994-.254,1.148,1.148,0,0,0,.508-.689,1,1,0,0,0-.181-.777.956.956,0,0,0-.617-.421,2.205,2.205,0,0,0-.813.008c-.29.058-.675.152-1.161.283a13.951,13.951,0,0,1-1.786.4,3.166,3.166,0,0,1-1.5-.174,2.844,2.844,0,0,1-1.357-1.14,2.873,2.873,0,0,1-.552-1.669A3.172,3.172,0,0,1-293.272,358.443Zm62.418-3.483A84.146,84.146,0,0,1-146.8,439.013a83.552,83.552,0,0,1-10.967,41.478,1.674,1.674,0,0,1-.276.486,84.235,84.235,0,0,1-7.787,11.243,1.515,1.515,0,0,1-.414.494,84.227,84.227,0,0,1-43.373,27.63.944.944,0,0,1-.2.051,83.781,83.781,0,0,1-21.04,2.671,83.965,83.965,0,0,1-21.23-2.722,1.353,1.353,0,0,1-.333-.087,83.463,83.463,0,0,1-16.019-6.082,1.354,1.354,0,0,1-.5-.247A84.623,84.623,0,0,1-296,492.06a1.411,1.411,0,0,1-.406-.515,83.866,83.866,0,0,1-7.57-11.134,1.369,1.369,0,0,1-.283-.5,83.5,83.5,0,0,1-10.648-40.9A84.151,84.151,0,0,1-230.854,354.96Zm-88.51,51.842a94.522,94.522,0,0,0-5.61,32.211,1.456,1.456,0,0,1-1.452,1.451,1.451,1.451,0,0,1-1.451-1.451,97.412,97.412,0,0,1,5.784-33.2,1.449,1.449,0,0,1,1.858-.871A1.445,1.445,0,0,1-319.364,406.8Zm8.085,96.29-2.01-3,1.647-2.149-2.932-4.376-2.613.7-1.988-2.968,14.45-3.484,2.178,3.252Zm24.9,9.733a7.331,7.331,0,0,1-1.742,3.331,7.452,7.452,0,0,1-3.084,2.178,6.216,6.216,0,0,1-3.55.2,8.126,8.126,0,0,1-3.527-1.9l-3.992-3.5,9.254-10.56,3.992,3.491a8.286,8.286,0,0,1,2.366,3.237A6.1,6.1,0,0,1-286.377,512.825Zm12.8,20.068-3.941-1.938L-275.7,516.2l3.266,1.6-1.575,11,7.745-7.969,3.258,1.6Zm28.037-3.034-5.226-1.132-.624,2.874,4.645,1-.544,2.5-4.638-1-.661,3.048,5.219,1.133-.574,2.656-8.542-1.851,2.968-13.724,8.543,1.85Zm20.518,12.288-5.93-8.456.254,8.623-3.4.094-.406-14.037,3.4-.1,5.929,8.535-.254-8.7,3.4-.1.406,14.044Zm23.638-4.2-3.287.937-3.107-10.909L-211.411,529l-.74-2.6,10.582-3.012.74,2.6-3.665,1.045Zm23.342-11.068a6.554,6.554,0,0,1-2.287,2.105,6.22,6.22,0,0,1-2.917.9,4.728,4.728,0,0,1-2.78-.762,7.029,7.029,0,0,1-2.308-2.54l-4.043-7.026,2.925-1.684,4.043,7.026a3.214,3.214,0,0,0,1.6,1.531,2.254,2.254,0,0,0,1.938-.268,2.271,2.271,0,0,0,1.212-1.546,3.234,3.234,0,0,0-.515-2.156l-4.043-7.026,2.947-1.69,4.035,7.025a6.717,6.717,0,0,1,1,3.288A5.037,5.037,0,0,1-178.046,526.876Zm19.335-14.682-5.872-1.691-.559.537,3.694,3.81-2.438,2.366-9.784-10.081,4.166-4.043a6.241,6.241,0,0,1,2.424-1.546,3.993,3.993,0,0,1,2.345-.072,4.532,4.532,0,0,1,2.01,1.248,4.069,4.069,0,0,1,1.205,2.453,4.313,4.313,0,0,1-.74,2.766l6.241,1.64Zm11.133-13.246-11.823-7.577,4.71-7.36,2.279,1.459-2.881,4.5,2.475,1.582,2.562-4,2.156,1.386-2.562,4,2.627,1.676,2.881-4.5,2.294,1.474Zm12.912-58.484a1.456,1.456,0,0,1-1.452-1.451,94.522,94.522,0,0,0-5.61-32.211,1.445,1.445,0,0,1,.871-1.858,1.449,1.449,0,0,1,1.858.871,97.413,97.413,0,0,1,5.784,33.2A1.451,1.451,0,0,1-134.666,440.464Z" fill="none"/>
    <path id="Trazado_85" data-name="Trazado 85" d="M-166.332,504.667a2.041,2.041,0,0,0-1.394.688l-1.511,1.467,2.476,2.552,1.511-1.466a2.118,2.118,0,0,0,.758-1.359,1.723,1.723,0,0,0-.577-1.28A1.754,1.754,0,0,0-166.332,504.667Z" fill="none"/>
    <path id="Trazado_87" data-name="Trazado 87" d="M-246.161,470.4a112.739,112.739,0,0,1-2.54-13.616Z" fill="#b33030"/>
    <path id="Trazado_88" data-name="Trazado 88" d="M-213,456.773a114.549,114.549,0,0,1-2.54,13.63Z" fill="#b33030"/>
    <path id="Trazado_91" data-name="Trazado 91" d="M-291.862,362.93a3.106,3.106,0,0,0,1.493.172,13.52,13.52,0,0,0,1.786-.4q.726-.2,1.158-.284a2.122,2.122,0,0,1,.813-.007.956.956,0,0,1,.619.419.973.973,0,0,1,.181.778,1.125,1.125,0,0,1-.5.687,1.357,1.357,0,0,1-1,.257,1.487,1.487,0,0,1-.917-.551l-2.316,1.6a3.248,3.248,0,0,0,2.495,1.323,4.907,4.907,0,0,0,3.005-.987,4.588,4.588,0,0,0,1.466-1.541,3.115,3.115,0,0,0,.409-1.694,3.017,3.017,0,0,0-.544-1.562,2.9,2.9,0,0,0-1.381-1.152,3.289,3.289,0,0,0-1.518-.183,12.444,12.444,0,0,0-1.814.4q-.747.2-1.162.278a1.95,1.95,0,0,1-.78,0,.921.921,0,0,1-.584-.4.911.911,0,0,1-.178-.761,1.108,1.108,0,0,1,.476-.63,1.162,1.162,0,0,1,.887-.228,1.469,1.469,0,0,1,.813.482l2.355-1.628a3.308,3.308,0,0,0-2.355-1.27,4.5,4.5,0,0,0-2.879.938,5.021,5.021,0,0,0-1.433,1.452,3.148,3.148,0,0,0-.5,1.676,2.87,2.87,0,0,0,.552,1.669A2.856,2.856,0,0,0-291.862,362.93Z" fill="#b3100d"/>
    <path id="Trazado_92" data-name="Trazado 92" d="M-270.555,355.327a3.732,3.732,0,0,0,2.054.9,4.925,4.925,0,0,0,2.352-.365,5.1,5.1,0,0,0,2-1.365,3.918,3.918,0,0,0,.946-2.088,5.2,5.2,0,0,0-.4-2.647l-2.323-5.871-2.461.973,2.323,5.872a2.484,2.484,0,0,1,.156,1.719,1.755,1.755,0,0,1-1.106,1.053,1.756,1.756,0,0,1-1.527-.011,2.486,2.486,0,0,1-1.063-1.361l-2.323-5.871-2.446.968,2.323,5.871A5.48,5.48,0,0,0-270.555,355.327Z" fill="#b3100d"/>
    <path id="Trazado_93" data-name="Trazado 93" d="M-246.227,350.2l-.836-6.758,3.186,6.467,2.273-.281,1.5-7.031.834,6.742,2.626-.325-1.334-10.782-3.194.4-1.943,7.866-3.862-7.147-3.21.4,1.334,10.782Z" fill="#b3100d"/>
    <path id="Trazado_94" data-name="Trazado 94" d="M-219.523,342.792l1.371,7.078,2.267.327,3.3-6.388-.971,6.724,2.619.378,1.552-10.753-3.186-.46-3.946,7.076-1.844-7.912-3.2-.462-1.552,10.752,2.619.378Z" fill="#b3100d"/>
    <path id="Trazado_95" data-name="Trazado 95" d="M-190.8,355.381l-3.859-1.561.911-2.253,3.429,1.387.749-1.851L-193,349.717l.859-2.123,3.859,1.561.789-1.951-6.312-2.554-4.1,10.143,6.312,2.554Z" fill="#b3100d"/>
    <path id="Trazado_96" data-name="Trazado 96" d="M-175.316,361.716l.5.343-.392,4.746,2.409,1.658.3-5.018a3.361,3.361,0,0,0,2.223.14,3.171,3.171,0,0,0,1.691-1.3,3.516,3.516,0,0,0,.644-1.727,3.094,3.094,0,0,0-.412-1.777,4.874,4.874,0,0,0-1.555-1.615l-3.723-2.562-6.2,9.013,2.18,1.5Zm2.6-3.773,1.351.93a1.586,1.586,0,0,1,.739.96,1.365,1.365,0,0,1-.266,1.056,1.345,1.345,0,0,1-.89.637,1.652,1.652,0,0,1-1.153-.371l-1.352-.93Z" fill="#b3100d"/>
    <path id="Trazado_97" data-name="Trazado 97" d="M-319.178,491.291l1.989,2.971,2.616-.7,2.929,4.374-1.643,2.152,2.012,3,8.725-12.034-2.177-3.252Zm9.194,4.483-1.957-2.922,5.276-1.4Z" fill="#b3100d"/>
    <path id="Trazado_98" data-name="Trazado 98" d="M-289.028,506.068l-3.991-3.494-9.253,10.566,3.99,3.495a8.106,8.106,0,0,0,3.526,1.9,6.2,6.2,0,0,0,3.556-.2,7.453,7.453,0,0,0,3.079-2.175,7.391,7.391,0,0,0,1.744-3.333,6.1,6.1,0,0,0-.283-3.522A8.249,8.249,0,0,0-289.028,506.068Zm-1.678,7.826a3.9,3.9,0,0,1-2.78,1.5,4.293,4.293,0,0,1-3.017-1.243l-1.211-1.061,5.288-6.037,1.211,1.06a4.3,4.3,0,0,1,1.63,2.827A3.9,3.9,0,0,1-290.706,513.894Z" fill="#b3100d"/>
    <path id="Trazado_99" data-name="Trazado 99" d="M-274.012,528.805l1.577-11-3.263-1.6-1.828,14.752,3.941,1.937L-263,522.44l-3.263-1.6Z" fill="#b3100d"/>
    <path id="Trazado_100" data-name="Trazado 100" d="M-256.49,539.095l8.543,1.849.576-2.66-5.223-1.13.66-3.048,4.641,1,.542-2.5-4.641-1,.622-2.874,5.223,1.131.572-2.641-8.543-1.849Z" fill="#b3100d"/>
    <path id="Trazado_101" data-name="Trazado 101" d="M-225.431,528.108l.251,8.7-5.931-8.533-3.4.1.406,14.039,3.4-.1-.249-8.618,5.929,8.454,3.4-.1-.405-14.039Z" fill="#b3100d"/>
    <path id="Trazado_102" data-name="Trazado 102" d="M-201.567,523.392l-10.585,3.013.74,2.6,3.63-1.033,3.105,10.911,3.286-.936-3.105-10.91,3.669-1.044Z" fill="#b3100d"/>
    <path id="Trazado_103" data-name="Trazado 103" d="M-182.273,513.737l-2.945,1.693,4.042,7.026a3.192,3.192,0,0,1,.517,2.155,2.252,2.252,0,0,1-1.209,1.543,2.251,2.251,0,0,1-1.942.27,3.192,3.192,0,0,1-1.6-1.531l-4.042-7.026-2.927,1.684,4.041,7.026a7.033,7.033,0,0,0,2.312,2.544,4.785,4.785,0,0,0,2.776.763,6.342,6.342,0,0,0,2.92-.9,6.563,6.563,0,0,0,2.284-2.1,5.036,5.036,0,0,0,.814-2.829,6.677,6.677,0,0,0-1-3.288Z" fill="#b3100d"/>
    <path id="Trazado_104" data-name="Trazado 104" d="M-161.52,505.175a4.079,4.079,0,0,0-1.207-2.455,4.521,4.521,0,0,0-2.011-1.246,3.984,3.984,0,0,0-2.34.07A6.252,6.252,0,0,0-169.5,503.1l-4.163,4.039,9.78,10.081,2.438-2.366-3.693-3.807.556-.539,5.875,1.69,2.695-2.615-6.241-1.639A4.319,4.319,0,0,0-161.52,505.175Zm-3.73,2.733-1.511,1.466-2.476-2.552,1.511-1.467a2.041,2.041,0,0,1,1.394-.688,1.754,1.754,0,0,1,1.263.6,1.723,1.723,0,0,1,.577,1.28A2.118,2.118,0,0,1-165.25,507.908Z" fill="#b3100d"/>
    <path id="Trazado_105" data-name="Trazado 105" d="M-148.034,494.619l-2.627-1.682,2.561-4-2.158-1.382-2.561,4-2.476-1.585,2.882-4.5-2.275-1.457-4.713,7.361,11.828,7.574,4.714-7.361-2.292-1.468Z" fill="#b3100d"/>
    <g id="Grupo_12" data-name="Grupo 12">
      <path id="Trazado_86" data-name="Trazado 86" d="M-230.854,317.023a122.126,122.126,0,0,0-121.983,121.99A122.124,122.124,0,0,0-230.854,560.995a122.126,122.126,0,0,0,121.99-121.982A122.128,122.128,0,0,0-230.854,317.023Zm0,241.069a119.213,119.213,0,0,1-119.08-119.079,119.215,119.215,0,0,1,119.08-119.087A119.216,119.216,0,0,1-111.768,439.013,119.213,119.213,0,0,1-230.854,558.092Z" fill="#b3100d"/>
      <path id="Trazado_89" data-name="Trazado 89" d="M-230.854,354.96a84.151,84.151,0,0,0-84.054,84.053,83.5,83.5,0,0,0,10.648,40.9,1.369,1.369,0,0,0,.283.5,83.866,83.866,0,0,0,7.57,11.134,1.411,1.411,0,0,0,.406.515,84.623,84.623,0,0,0,27.065,21.868,1.354,1.354,0,0,0,.5.247,83.463,83.463,0,0,0,16.019,6.082,1.353,1.353,0,0,0,.333.087,83.965,83.965,0,0,0,21.23,2.722,83.781,83.781,0,0,0,21.04-2.671.944.944,0,0,0,.2-.051,84.227,84.227,0,0,0,43.373-27.63,1.515,1.515,0,0,0,.414-.494,84.235,84.235,0,0,0,7.787-11.243,1.674,1.674,0,0,0,.276-.486A83.552,83.552,0,0,0-146.8,439.013,84.146,84.146,0,0,0-230.854,354.96Zm0,165.2a81.441,81.441,0,0,1-17.4-1.887.548.548,0,0,1,.087-.058c4.457-3.034,8.659-5.9,17.165-5.9h.145c8.579.029,12.781,2.925,17.216,6A80.952,80.952,0,0,1-230.854,520.163Zm21.011-2.765c-.711-.472-1.423-.959-2.1-1.438-4.623-3.2-9.4-6.51-18.9-6.546h-.16c-9.4,0-14.174,3.251-18.8,6.4-.74.508-1.509,1.024-2.279,1.517a78.884,78.884,0,0,1-9.979-3.418c6.307-.907,10.154-3.52,13.891-6.075,4.457-3.034,8.659-5.9,17.165-5.9h.145c8.6.037,12.81,2.954,17.259,6.039,3.651,2.533,7.411,5.124,13.515,6.125A81.979,81.979,0,0,1-209.843,517.4Zm15.176-5.77h-.029c-8.6-.037-12.8-2.947-17.252-6.039-4.623-3.2-9.4-6.51-18.9-6.554h-.16c-9.4,0-14.174,3.259-18.8,6.409-4.478,3.048-8.731,5.937-17.31,5.9-.174,0-.341-.007-.515-.007a81.634,81.634,0,0,1-21.933-16.359c1.212.733,2.366,1.531,3.542,2.344,4.616,3.2,9.4,6.518,18.9,6.554h.16c9.391,0,14.174-3.259,18.79-6.409,4.457-3.033,8.659-5.9,17.165-5.9h.145c8.6.036,12.81,2.954,17.259,6.038,4.616,3.2,9.392,6.518,18.9,6.554h.16c9.4,0,14.174-3.259,18.8-6.408.85-.581,1.692-1.147,2.548-1.692A81.5,81.5,0,0,1-194.667,511.628Zm26.615-21.273a35.919,35.919,0,0,0-9.334,5c-4.478,3.049-8.731,5.923-17.31,5.9-8.6-.036-12.8-2.954-17.252-6.038-4.623-3.2-9.4-6.518-18.9-6.554h-.16c-9.4,0-14.174,3.258-18.8,6.408-4.478,3.049-8.731,5.93-17.31,5.9-8.6-.036-12.8-2.954-17.252-6.038a34.8,34.8,0,0,0-9.812-5.248,81.064,81.064,0,0,1-6.053-8.622c6.612.624,10.32,3.186,14.211,5.886,4.616,3.2,9.4,6.517,18.9,6.554,9.522.014,14.305-3.237,18.95-6.409,4.457-3.034,8.659-5.9,17.165-5.9h.145c8.6.037,12.81,2.947,17.259,6.039,4.616,3.2,9.392,6.51,18.9,6.554h.16c9.4,0,14.174-3.259,18.8-6.409,3.847-2.62,7.512-5.11,13.921-5.741A82.98,82.98,0,0,1-168.052,490.355Zm-84.307-43.424a37.253,37.253,0,0,1-16.04-30.788,37.593,37.593,0,0,1,37.545-37.552A37.6,37.6,0,0,1-193.3,416.143a37.256,37.256,0,0,1-16.04,30.788c.014-.718.029-1.43.029-2.119,0-22.928-9.675-53.338-20.968-56.147a1.494,1.494,0,0,0-.356-.044h-.428a1.458,1.458,0,0,0-.356.044c-11.293,2.809-20.967,33.219-20.967,56.147C-252.388,445.509-252.374,446.22-252.359,446.931Zm40.143-2.119c0,1.517-.044,3.092-.131,4.681-.123,2.395-.348,4.834-.653,7.28a114.549,114.549,0,0,1-2.54,13.63,100.594,100.594,0,0,1-3.194,10.35,27.728,27.728,0,0,0-10.669-2.425V392.149C-220.918,396.99-212.216,422.987-212.216,444.812Zm-20.09-52.663v86.172A27.572,27.572,0,0,0-243,480.666a98.275,98.275,0,0,1-3.164-10.27,112.739,112.739,0,0,1-2.54-13.616c-.3-2.424-.523-4.827-.654-7.193-.087-1.625-.13-3.229-.13-4.775C-249.485,422.987-240.783,396.99-232.306,392.149Zm72.259,86.462c-8.441.32-12.962,3.39-17.339,6.373-4.478,3.048-8.731,5.915-17.31,5.9-8.6-.037-12.8-2.954-17.252-6.039-1.35-.936-2.707-1.873-4.2-2.744a112.4,112.4,0,0,0,6.641-31.593,40.152,40.152,0,0,0,19.1-34.366,40.5,40.5,0,0,0-40.455-40.455A40.5,40.5,0,0,0-271.3,416.143a40.154,40.154,0,0,0,19.1,34.366A112.8,112.8,0,0,0-245.6,482c-1.488.849-2.853,1.778-4.2,2.7-4.478,3.048-8.731,5.922-17.31,5.9-8.6-.036-12.8-2.953-17.252-6.038-4.4-3.055-8.963-6.2-17.607-6.517A80.642,80.642,0,0,1-312,439.013a81.239,81.239,0,0,1,81.15-81.15,81.235,81.235,0,0,1,81.15,81.15A80.621,80.621,0,0,1-160.047,478.611Z" fill="#b3100d"/>
      <path id="Trazado_90" data-name="Trazado 90" d="M-230.854,327.851A111.284,111.284,0,0,0-342.008,439.013,111.277,111.277,0,0,0-230.854,550.167,111.279,111.279,0,0,0-119.693,439.013,111.286,111.286,0,0,0-230.854,327.851Zm0,219.413A108.375,108.375,0,0,1-339.105,439.013,108.376,108.376,0,0,1-230.854,330.755,108.378,108.378,0,0,1-122.6,439.013,108.377,108.377,0,0,1-230.854,547.264Z" fill="#b3100d"/>
      <path id="Trazado_106" data-name="Trazado 106" d="M-139,405.815a1.452,1.452,0,0,0-1.858-.871,1.451,1.451,0,0,0-.872,1.858,94.462,94.462,0,0,1,5.615,32.208,1.452,1.452,0,0,0,1.452,1.451,1.451,1.451,0,0,0,1.451-1.451A97.351,97.351,0,0,0-139,405.815Z" fill="#b3100d"/>
      <path id="Trazado_107" data-name="Trazado 107" d="M-320.233,404.944a1.45,1.45,0,0,0-1.858.871,97.351,97.351,0,0,0-5.788,33.2,1.452,1.452,0,0,0,1.452,1.451,1.451,1.451,0,0,0,1.451-1.451,94.462,94.462,0,0,1,5.615-32.208A1.45,1.45,0,0,0-320.233,404.944Z" fill="#b3100d"/>
    </g>
  </g>
</svg>
